<?xml version="1.0" encoding="UTF-8"?>
<svg id="Layer_1" xmlns="http://www.w3.org/2000/svg" version="1.1" viewBox="0 0 1024 1024">
  <!-- Generator: Adobe Illustrator 29.5.1, SVG Export Plug-In . SVG Version: 2.1.0 Build 141)  -->
  <path d="M743,113.7c-37.3-18.8-76.8-8.1-116.5-10.4,0,25.8.2,48.9,0,72-.6,43.3-31,75.4-74.3,75.7-88.3.7-176.7.8-265,0-43.8-.4-74.6-33.3-74.7-76.7,0-19.5-.3-38.9,0-58.4.2-9.4-3.3-13.2-12.9-13.1-21.5.4-43.1,0-64.7.1-50.9.5-91.8,41.5-91.8,92.6-.1,226.6-.1,453.2,0,679.8,0,51.5,41.5,93.6,92.7,94.2,74.1.8,148.2,1.2,223.8,1.7,36.3,0,71,.2,105.7,0,29.9-.3,59.9,1.6,89.8-1.6,36-3.9,59.9-38.4,50.6-72.9-8.9-32.9-51.2-44.4-75.9-19.9-13,12.9-23,28.8-35.8,41.8-18.4,18.7-41.5,22.6-65.5,13.6-21.6-8.1-35.3-24-36.5-48.5-1.4-27.8,12.6-45.9,36.7-56.8,15.3-6.9,31.6-11.6,46.8-18.6,23.6-10.8,38.9-28.5,39.6-55.8,1-36-21-58.7-62.8-65.8-16.5-2.8-33.3-4.3-48.6-12-23.4-11.8-36-31.5-36.1-56.7,0-23.3,8.9-44,30.3-57.3,25-15.4,51.9-14.5,76.1,5.3,16.6,13.6,31,29.9,47.2,44,15.7,13.6,37.3,13.4,53.8,1.2,20.4-15.2,24.7-37.9,11-59.8-11.8-18.8-29.6-32.7-41.1-51.8-14.2-23.4-13.2-51.8,2.9-72.2,17.6-22.2,44.4-30.4,70.3-21.5,26.4,9.1,43,31.9,43.7,59.4.5,18-3,35.5-4.7,53.2-2.2,22,9.2,39,30.5,45,21,5.9,41.7-4.7,53.4-28.5,16.3-32.9,28.5-67.8,49-98.7,2.8-4.2,2.7-9,2.7-13.7,0-76.8,1-153.5-.4-230.3-.6-34.8-17.3-62.4-49.5-78.6Z"/>
  <path d="M293.9,196.3c83.5.2,167.1.2,250.6,0,20,0,27.5-8.2,27.6-28,.2-32,.1-64.1,0-96.1-.1-34.9-25.6-60.4-60.6-60.5-62-.1-124-.1-186,0-36.2,0-61.2,25.1-61.4,61.4-.2,31.5,0,63,0,96,5,21.3,11.1,27.2,29.7,27.3Z"/>
  <path d="M856.2,619.8c25.1-14.1,49.7-29.1,74.3-44.1,8.6-5.2,15.3-12.7,21.1-22.5,10.8-19.4,13-38.8,6.1-58.5-9.6-27.9-29.9-44.5-59-47.3-29.9-2.9-53.3,10.7-67.5,37-14.7,27.2-24.2,56.8-34.1,86.1-5.7,17-5.7,33.1,9.1,46.1,13,11.4,32.2,13.2,49.9,3.3Z"/>
  <path d="M944.4,886.9c-14.5-8.2-30.6-13.7-47-20.9-13.6-7.1-26.2-13.7-38.7-20.4-13.8-7.3-27-5.5-37.7,5.1-10.9,10.9-14.9,25-6.8,38.9,17.5,30,31.4,61.8,48.9,91.6,13.6,23.1,35.7,33.5,63,29.4,25.1-3.7,41.9-18.2,50.7-41.8,11.4-30.5-1.5-64.4-32.5-81.9Z"/>
  <path d="M953.3,701.5c-25-17.7-71.2-9.9-89.6,14.8-15.3,20.5-8,46.1,16,55.1,15.8,5.9,32.3,8.9,49.1,8.6,26.3-.4,42.5-17,43.8-44.7-.4-15.8-8.3-26-19.4-33.8Z"/>
  <path d="M734.6,910.9c-19.1-.4-40.6,21-41.6,40.2-.8,14.9,6.8,24.9,19.1,31.5,13.6,7.3,32.4,3,46.6-10.6,5.3-14.2,6.1-27.6,2.4-41.1-3.7-13.5-13.3-19.8-26.6-20.1Z"/>
</svg>